<?xml version="1.0" standalone="no"?>
<!DOCTYPE svg PUBLIC "-//W3C//DTD SVG 20010904//EN"
 "http://www.w3.org/TR/2001/REC-SVG-20010904/DTD/svg10.dtd">
<svg version="1.0" xmlns="http://www.w3.org/2000/svg"
 width="300.000000pt" height="199.000000pt" viewBox="0 0 300.000000 199.000000"
 preserveAspectRatio="xMidYMid meet">
<metadata>
Created by potrace 1.10, written by Peter Selinger 2001-2011
</metadata>
<g transform="translate(0.000000,199.000000) scale(0.100000,-0.100000)"
fill="#000000" stroke="none">
<path d="M574 1955 c4 -16 11 -31 16 -33 5 -2 6 -10 3 -18 -3 -8 0 -14 7 -14
6 0 9 -4 5 -10 -3 -5 15 -85 41 -177 25 -92 51 -186 56 -208 5 -22 17 -67 28
-100 11 -33 21 -73 24 -88 3 -15 13 -54 22 -85 9 -31 17 -65 16 -74 0 -10 3
-20 8 -23 4 -3 -1 -29 -12 -58 -10 -28 -37 -105 -59 -170 -22 -65 -46 -132
-54 -148 -9 -16 -13 -29 -10 -29 2 0 -5 -24 -16 -52 -12 -29 -23 -60 -24 -68
-2 -8 -4 -17 -6 -20 -3 -7 -7 -23 -8 -37 0 -7 -6 -13 -12 -13 -5 0 -8 4 -5 9
4 5 -10 4 -29 -2 -19 -6 -32 -13 -29 -16 9 -9 174 -8 174 1 0 5 -9 8 -20 8
-26 0 -46 36 -29 56 6 8 9 14 6 14 -3 0 3 26 14 58 11 31 22 64 23 72 2 12 23
16 98 18 l95 3 12 -43 c7 -23 15 -53 17 -66 3 -13 11 -42 19 -65 15 -44 11
-64 -10 -47 -14 11 -45 3 -45 -12 0 -5 15 -8 33 -7 37 4 58 -6 51 -24 -10 -26
19 -43 61 -36 22 3 32 7 23 8 -10 0 -22 18 -32 48 -167 526 -348 1120 -349
1154 -1 21 -6 34 -11 31 -5 -3 -7 2 -3 11 3 9 1 17 -5 19 -6 2 -11 18 -11 36
0 17 -5 29 -10 25 -5 -3 -6 3 -3 15 8 24 -30 151 -51 172 -14 13 -15 12 -9
-15z m255 -977 c7 -24 13 -47 13 -53 1 -5 11 -40 24 -77 12 -37 19 -70 14 -73
-5 -3 -11 -1 -15 5 -3 5 -36 10 -72 10 l-65 0 7 28 c4 15 8 34 10 43 2 8 10
32 19 54 9 21 19 52 22 68 10 61 25 59 43 -5z"/>
<path d="M1451 1704 c0 -11 3 -14 6 -6 3 7 2 16 -1 19 -3 4 -6 -2 -5 -13z"/>
<path d="M1529 1155 c-1 -5 -1 -14 0 -19 1 -4 -5 -32 -14 -61 -18 -63 -18 -65
-5 -65 5 0 16 15 24 34 18 42 64 59 146 54 l55 -3 0 -245 c-1 -302 -2 -322
-26 -315 -20 7 -73 -5 -64 -14 9 -8 235 -8 235 0 0 4 -15 10 -34 13 -19 4 -37
14 -40 22 -3 9 -6 135 -6 280 l0 264 59 0 c47 0 114 -13 129 -26 2 -1 6 -17 9
-36 10 -65 21 -53 27 30 3 34 7 66 10 71 4 5 2 12 -4 16 -5 3 -10 -3 -10 -14
0 -11 -4 -23 -10 -26 -5 -3 -10 -3 -10 2 0 4 -99 8 -220 8 -207 0 -220 1 -234
20 -9 11 -16 16 -17 10z"/>
<path d="M256 1130 c-16 -5 -33 -7 -38 -4 -4 3 -8 -2 -8 -10 0 -9 -5 -16 -11
-16 -5 0 -7 5 -3 11 7 12 -41 -11 -71 -35 -31 -24 -8 -19 25 6 16 12 32 19 36
16 3 -4 -5 -12 -18 -18 -12 -7 -35 -24 -50 -38 -16 -14 -28 -22 -28 -18 0 5
-7 3 -15 -4 -8 -7 -15 -17 -15 -23 0 -6 7 -2 16 9 14 18 15 18 4 -3 -6 -13
-15 -23 -20 -23 -33 0 -55 -142 -38 -247 7 -38 34 -90 70 -133 56 -67 165
-106 273 -97 96 7 141 28 153 69 30 97 20 116 -23 48 -14 -22 -43 -52 -65 -66
-72 -48 -189 -28 -259 45 -34 36 -61 84 -61 109 0 12 -4 23 -9 26 -9 6 -7 166
3 210 26 112 165 196 275 166 50 -13 110 -65 116 -99 9 -50 25 -47 24 5 -2 60
-12 110 -22 107 -4 -2 -8 -3 -9 -2 -38 12 -202 19 -232 9z m-172 -440 c18 -53
14 -64 -9 -20 -29 56 -39 126 -29 190 7 43 8 41 15 -40 4 -47 14 -105 23 -130z
m416 -99 c-10 -20 -62 -61 -75 -61 -7 0 75 79 83 80 1 0 -2 -9 -8 -19z"/>
<path d="M1260 1133 c-8 -3 -19 -12 -23 -19 -4 -8 -13 -14 -18 -14 -6 0 -7 5
-4 11 4 6 -2 5 -13 -2 -28 -18 -55 -80 -55 -128 0 -40 40 -122 67 -138 16 -10
78 -58 122 -96 59 -50 71 -157 23 -200 -23 -21 -23 -21 1 8 l25 30 -32 -29
c-26 -23 -42 -29 -76 -29 -57 0 -90 24 -123 90 -14 29 -30 51 -34 48 -7 -4 3
-76 16 -117 7 -22 75 -48 130 -48 56 0 101 19 139 59 26 28 30 39 32 103 1 39
-3 81 -9 92 -14 27 -95 104 -129 121 -35 18 -87 79 -95 110 -8 34 2 69 29 101
20 23 32 27 70 27 55 0 90 -26 108 -80 20 -63 32 -16 15 62 -2 11 -5 22 -5 25
-1 3 -9 7 -18 8 -93 9 -130 11 -143 5z m-50 -37 c0 -2 -8 -10 -17 -17 -16 -13
-17 -12 -4 4 13 16 21 21 21 13z m93 -260 c26 -17 47 -34 47 -38 0 -4 6 -8 13
-8 12 0 52 -78 43 -87 -2 -2 -7 4 -10 15 -7 21 -50 62 -105 102 -50 37 -76 61
-96 95 -17 26 -14 25 21 -10 23 -22 62 -53 87 -69z"/>
<path d="M2074 1120 c-3 -2 12 -9 33 -15 26 -7 39 -18 44 -35 11 -40 10 -466
-1 -495 -7 -19 -7 -24 1 -19 7 4 10 1 7 -7 -3 -8 -14 -13 -24 -12 -25 4 -68
-6 -60 -14 10 -10 397 -9 404 1 10 17 31 120 26 126 -10 9 -35 -35 -30 -53 5
-20 -43 -79 -50 -61 -3 6 -27 9 -63 6 -73 -5 -127 11 -135 41 -8 32 -7 490 2
503 4 6 19 14 35 18 15 3 27 10 27 14 0 8 -209 10 -216 2z m113 -62 c-3 -7 -5
-2 -5 12 0 14 2 19 5 13 2 -7 2 -19 0 -25z m16 -488 c3 -13 0 -20 -9 -20 -8 0
-14 9 -14 20 0 11 4 20 9 20 5 0 11 -9 14 -20z"/>
<path d="M2550 1118 c0 -4 11 -10 25 -14 14 -3 30 -14 35 -24 14 -26 13 -486
-1 -512 -8 -16 -8 -19 1 -13 8 5 11 3 8 -6 -3 -8 -13 -14 -24 -15 -58 -3 -67
-5 -61 -10 9 -10 417 -12 423 -3 3 5 12 34 20 65 15 59 10 84 -10 49 -6 -11
-28 -37 -48 -58 l-38 -39 -81 4 c-114 5 -121 14 -117 162 l3 111 69 3 c75 3
107 -13 103 -51 -1 -11 4 -22 11 -24 9 -4 12 19 12 91 0 53 -4 96 -9 96 -14 0
-20 -25 -14 -60 4 -30 3 -32 -19 -27 -13 4 -54 7 -91 7 l-68 0 3 123 3 122 75
3 c90 3 118 -9 143 -61 32 -65 37 -51 23 66 -2 15 -20 17 -189 20 -103 1 -187
-1 -187 -5z m112 -300 c-9 -9 -12 -7 -12 12 0 19 3 21 12 12 9 -9 9 -15 0 -24z
m7 -260 c1 -5 -3 -8 -9 -8 -5 0 -10 12 -9 28 0 24 1 25 9 7 5 -11 9 -23 9 -27z
m276 8 c-10 -14 -24 -26 -33 -26 -11 0 -8 8 13 30 33 35 44 33 20 -4z"/>
<path d="M2441 568 c-14 -23 -14 -23 8 -4 22 20 25 26 13 26 -4 0 -13 -10 -21
-22z"/>
<path d="M1036 527 c3 -10 9 -15 12 -12 3 3 0 11 -7 18 -10 9 -11 8 -5 -6z"/>
<path d="M1003 426 c-18 -6 -33 -14 -33 -18 0 -12 18 -10 50 7 16 8 35 12 43
9 8 -3 18 -1 21 4 7 12 -41 11 -81 -2z"/>
<path d="M1062 401 c-11 -6 -11 -17 -2 -50 9 -33 15 -41 33 -40 12 0 16 3 10
6 -7 2 -13 18 -13 33 0 16 -5 32 -11 36 -8 4 -7 9 2 15 8 5 10 9 4 9 -5 0 -16
-4 -23 -9z"/>
<path d="M987 383 c7 -2 15 -20 19 -39 7 -36 11 -39 34 -24 11 7 12 12 3 21
-6 6 -9 17 -7 24 3 7 -5 15 -18 19 -27 7 -49 7 -31 -1z"/>
<path d="M1020 300 c-13 -9 -13 -10 0 -10 8 0 22 5 30 10 13 9 13 10 0 10 -8
0 -22 -5 -30 -10z"/>
<path d="M1080 286 c0 -8 5 -27 10 -42 7 -18 7 -31 1 -37 -7 -7 -14 5 -23 36
-7 26 -15 47 -18 47 -18 -1 -31 -21 -28 -46 4 -40 47 -61 89 -44 32 13 34 34
11 78 -14 25 -42 30 -42 8z"/>
<path d="M1063 145 c12 -19 25 -34 29 -35 13 0 -1 42 -19 56 -30 22 -33 16
-10 -21z"/>
<path d="M1123 155 c3 -18 -1 -34 -10 -44 -13 -12 -13 -16 -2 -20 17 -5 29
-21 29 -40 0 -11 -4 -9 -15 5 -12 15 -12 11 2 -19 21 -46 35 -36 23 18 -5 22
-10 57 -10 77 0 20 -5 40 -11 44 -8 5 -10 -2 -6 -21z"/>
</g>
</svg>
